<svg width="24" height="24" viewBox="0 0 24 24" fill="none" xmlns="http://www.w3.org/2000/svg">
  <circle cx="12" cy="12" r="12" fill="#1DB954"/> <!-- Spotify green circle -->
  <path d="M16.47 17.18c-.23.37-.73.49-1.11.26-3.03-1.86-6.87-2.28-11.36-1.23-.44.1-.88-.18-1.02-.61-.14-.44.18-.88.61-1.02 4.84-1.12 9.03-.64 12.45 1.35.39.23.5.73.27 1.11zm1.03-2.78c-.29.47-.9.62-1.38.33-3.47-2.14-8.77-2.76-12.79-1.49-.54.17-1.13-.13-1.29-.69-.16-.54.13-1.13.69-1.29 4.55-1.36 10.35-.68 14.27 1.72.48.28.63.9.33 1.38zm.2-3.01c-.35.57-1.1.76-1.69.41-3.99-2.45-10.53-2.67-14.42-1.43-.66.2-1.37-.19-1.56-.85-.2-.66.19-1.37.85-1.56 4.46-1.33 11.61-1.09 16.06 1.61.57.35.76 1.12.41 1.69z" fill="white"/> <!-- Spotify sound waves -->
</svg>
