<svg width="24" height="24" viewBox="0 0 48 48" fill="none" xmlns="http://www.w3.org/2000/svg">
  <circle cx="24" cy="24" r="20" fill="#FF0000"/> <!-- Changed circle color to YouTube Red -->
  <path fill-rule="evenodd" clip-rule="evenodd" d="M33.66 19.57c-.4-1.51-1.58-2.69-3.09-3.09C28.81 16 24 16 24 16s-4.81 0-6.57.48c-1.51.4-2.69 1.58-3.09 3.09C14 21.33 14 24 14 24s0 2.67.34 4.43c.4 1.51 1.58 2.69 3.09 3.09C19.19 32 24 32 24 32s4.81 0 6.57-.48c1.51-.4 2.69-1.58 3.09-3.09C34 26.67 34 24 34 24s0-2.67-.34-4.43zM21.72 27.92v-7.84L28.57 24l-6.85 3.92z" fill="white"/>
</svg>
